<svg width="364" height="289" viewBox="0 0 364 289" fill="none" xmlns="http://www.w3.org/2000/svg">
<path d="M264.833 103.75H182.5L161.917 83.1667H100.167C88.8458 83.1667 79.6862 92.4292 79.6862 103.75L79.5833 227.25C79.5833 238.571 88.8458 247.833 100.167 247.833H264.833C276.154 247.833 285.417 238.571 285.417 227.25V124.333C285.417 113.012 276.154 103.75 264.833 103.75ZM264.833 227.25H100.167V124.333H264.833V227.25Z" fill="black"/>
<path fill-rule="evenodd" clip-rule="evenodd" d="M182 128C156.585 128 136 148.585 136 174C136 194.355 149.167 211.547 167.452 217.642C169.752 218.045 170.615 216.665 170.615 215.457C170.615 214.365 170.558 210.742 170.558 206.89C159 209.017 156.01 204.072 155.09 201.485C154.572 200.162 152.33 196.08 150.375 194.987C148.765 194.125 146.465 191.997 150.318 191.94C153.94 191.882 156.528 195.275 157.39 196.655C161.53 203.612 168.143 201.657 170.788 200.45C171.19 197.46 172.397 195.447 173.72 194.297C163.485 193.147 152.79 189.18 152.79 171.585C152.79 166.582 154.573 162.442 157.505 159.222C157.045 158.072 155.435 153.357 157.965 147.032C157.965 147.032 161.818 145.825 170.615 151.747C174.295 150.712 178.205 150.195 182.115 150.195C186.025 150.195 189.935 150.712 193.615 151.747C202.413 145.767 206.265 147.032 206.265 147.032C208.795 153.357 207.185 158.072 206.725 159.222C209.658 162.442 211.44 166.525 211.44 171.585C211.44 189.237 200.688 193.147 190.453 194.297C192.12 195.735 193.558 198.495 193.558 202.807C193.558 208.96 193.5 213.905 193.5 215.457C193.5 216.665 194.363 218.102 196.663 217.642C205.794 214.56 213.73 208.691 219.351 200.862C224.973 193.033 227.998 183.638 228 174C228 148.585 207.415 128 182 128Z" fill="black"/>
<path d="M13.0176 42.4697V58H3.93555V13.9219H21.1309C24.4408 13.9219 27.347 14.5273 29.8496 15.7383C32.3724 16.9492 34.3099 18.6748 35.6621 20.915C37.0143 23.1351 37.6904 25.668 37.6904 28.5137C37.6904 32.8327 36.207 36.2435 33.2402 38.7461C30.2936 41.2285 26.2067 42.4697 20.9795 42.4697H13.0176ZM13.0176 35.1133H21.1309C23.5326 35.1133 25.359 34.5482 26.6104 33.418C27.8818 32.2878 28.5176 30.6732 28.5176 28.5742C28.5176 26.4147 27.8818 24.6689 26.6104 23.3369C25.3389 22.0049 23.583 21.3187 21.3428 21.2783H13.0176V35.1133ZM41.5957 41.3193C41.5957 38.07 42.2214 35.1738 43.4727 32.6309C44.724 30.0879 46.5202 28.1201 48.8613 26.7275C51.2227 25.335 53.9574 24.6387 57.0654 24.6387C61.4854 24.6387 65.0879 25.9909 67.873 28.6953C70.6784 31.3997 72.2425 35.0729 72.5654 39.7148L72.626 41.9551C72.626 46.9805 71.2233 51.0169 68.418 54.0645C65.6126 57.0918 61.8486 58.6055 57.126 58.6055C52.4033 58.6055 48.6292 57.0918 45.8037 54.0645C42.9984 51.0371 41.5957 46.9199 41.5957 41.7129V41.3193ZM50.3447 41.9551C50.3447 45.0632 50.93 47.4447 52.1006 49.0996C53.2712 50.7344 54.9463 51.5518 57.126 51.5518C59.2451 51.5518 60.9001 50.7445 62.0908 49.1299C63.2816 47.4951 63.877 44.8916 63.877 41.3193C63.877 38.2718 63.2816 35.9105 62.0908 34.2354C60.9001 32.5602 59.2249 31.7227 57.0654 31.7227C54.9261 31.7227 53.2712 32.5602 52.1006 34.2354C50.93 35.8903 50.3447 38.4635 50.3447 41.9551ZM91.6377 51.5518C93.2523 51.5518 94.5641 51.1077 95.5732 50.2197C96.5824 49.3317 97.1071 48.151 97.1475 46.6777H105.352C105.331 48.8978 104.726 50.9362 103.535 52.793C102.344 54.6296 100.71 56.0625 98.6309 57.0918C96.5723 58.1009 94.2917 58.6055 91.7891 58.6055C87.1068 58.6055 83.4134 57.1221 80.709 54.1553C78.0046 51.1683 76.6523 47.0511 76.6523 41.8037V41.2285C76.6523 36.1829 77.9945 32.1566 80.6787 29.1494C83.363 26.1423 87.0462 24.6387 91.7285 24.6387C95.8255 24.6387 99.1051 25.8092 101.567 28.1504C104.05 30.4714 105.311 33.5693 105.352 37.4443H97.1475C97.1071 35.749 96.5824 34.3766 95.5732 33.3271C94.5641 32.2575 93.2321 31.7227 91.5771 31.7227C89.5387 31.7227 87.9948 32.4694 86.9453 33.9629C85.916 35.4362 85.4014 37.8379 85.4014 41.168V42.0762C85.4014 45.4466 85.916 47.8685 86.9453 49.3418C87.9746 50.8151 89.5387 51.5518 91.6377 51.5518ZM122.244 44.8613L119.096 48.0098V58H110.347V11.5H119.096V37.2627L120.791 35.083L129.177 25.2441H139.682L127.845 38.8975L140.711 58H130.66L122.244 44.8613ZM157.937 58.6055C153.133 58.6055 149.218 57.1322 146.19 54.1855C143.183 51.2389 141.68 47.3135 141.68 42.4092V41.5615C141.68 38.2718 142.315 35.3353 143.587 32.752C144.858 30.1484 146.655 28.1504 148.976 26.7578C151.317 25.3451 153.981 24.6387 156.968 24.6387C161.448 24.6387 164.97 26.0514 167.533 28.877C170.117 31.7025 171.408 35.7087 171.408 40.8955V44.4678H150.55C150.832 46.6071 151.68 48.3226 153.093 49.6143C154.526 50.9059 156.332 51.5518 158.512 51.5518C161.882 51.5518 164.516 50.3307 166.413 47.8887L170.712 52.7021C169.4 54.5589 167.624 56.012 165.384 57.0615C163.144 58.0908 160.661 58.6055 157.937 58.6055ZM156.938 31.7227C155.202 31.7227 153.789 32.3079 152.699 33.4785C151.63 34.6491 150.943 36.3242 150.641 38.5039H162.811V37.8076C162.77 35.8701 162.245 34.3766 161.236 33.3271C160.227 32.2575 158.794 31.7227 156.938 31.7227ZM186.878 17.1914V25.2441H192.479V31.6621H186.878V48.0098C186.878 49.2207 187.11 50.0885 187.574 50.6133C188.038 51.138 188.926 51.4004 190.238 51.4004C191.207 51.4004 192.065 51.3298 192.812 51.1885V57.8184C191.096 58.3431 189.33 58.6055 187.514 58.6055C181.378 58.6055 178.25 55.5075 178.129 49.3115V31.6621H173.346V25.2441H178.129V17.1914H186.878Z" fill="#DB5858"/>
<path d="M214.245 41.8643H207.01V58H197.928V13.9219H214.306C219.513 13.9219 223.529 15.0824 226.354 17.4033C229.18 19.7243 230.593 23.0039 230.593 27.2422C230.593 30.2493 229.937 32.762 228.625 34.7803C227.333 36.7783 225.366 38.3727 222.722 39.5635L232.258 57.5762V58H222.51L214.245 41.8643ZM207.01 34.5078H214.336C216.617 34.5078 218.382 33.9326 219.634 32.7822C220.885 31.6117 221.511 30.0072 221.511 27.9688C221.511 25.89 220.915 24.2552 219.725 23.0645C218.554 21.8737 216.748 21.2783 214.306 21.2783H207.01V34.5078ZM252.026 58.6055C247.223 58.6055 243.308 57.1322 240.28 54.1855C237.273 51.2389 235.77 47.3135 235.77 42.4092V41.5615C235.77 38.2718 236.405 35.3353 237.677 32.752C238.948 30.1484 240.744 28.1504 243.065 26.7578C245.407 25.3451 248.071 24.6387 251.058 24.6387C255.538 24.6387 259.06 26.0514 261.623 28.877C264.206 31.7025 265.498 35.7087 265.498 40.8955V44.4678H244.64C244.922 46.6071 245.77 48.3226 247.183 49.6143C248.616 50.9059 250.422 51.5518 252.602 51.5518C255.972 51.5518 258.606 50.3307 260.503 47.8887L264.802 52.7021C263.49 54.5589 261.714 56.012 259.474 57.0615C257.233 58.0908 254.751 58.6055 252.026 58.6055ZM251.027 31.7227C249.292 31.7227 247.879 32.3079 246.789 33.4785C245.719 34.6491 245.033 36.3242 244.73 38.5039H256.9V37.8076C256.86 35.8701 256.335 34.3766 255.326 33.3271C254.317 32.2575 252.884 31.7227 251.027 31.7227ZM299.979 41.9248C299.979 46.9704 298.829 51.0169 296.528 54.0645C294.248 57.0918 291.16 58.6055 287.265 58.6055C283.955 58.6055 281.281 57.4551 279.242 55.1543V70.5938H270.493V25.2441H278.606L278.909 28.4531C281.028 25.9102 283.793 24.6387 287.204 24.6387C291.241 24.6387 294.379 26.1322 296.619 29.1191C298.859 32.1061 299.979 36.2233 299.979 41.4707V41.9248ZM291.23 41.2891C291.23 38.2415 290.686 35.8903 289.596 34.2354C288.526 32.5804 286.962 31.7529 284.903 31.7529C282.159 31.7529 280.271 32.8024 279.242 34.9014V48.3125C280.312 50.472 282.219 51.5518 284.964 51.5518C289.142 51.5518 291.23 48.1309 291.23 41.2891ZM304.066 41.3193C304.066 38.07 304.692 35.1738 305.943 32.6309C307.195 30.0879 308.991 28.1201 311.332 26.7275C313.693 25.335 316.428 24.6387 319.536 24.6387C323.956 24.6387 327.559 25.9909 330.344 28.6953C333.149 31.3997 334.713 35.0729 335.036 39.7148L335.097 41.9551C335.097 46.9805 333.694 51.0169 330.889 54.0645C328.083 57.0918 324.319 58.6055 319.597 58.6055C314.874 58.6055 311.1 57.0918 308.274 54.0645C305.469 51.0371 304.066 46.9199 304.066 41.7129V41.3193ZM312.815 41.9551C312.815 45.0632 313.401 47.4447 314.571 49.0996C315.742 50.7344 317.417 51.5518 319.597 51.5518C321.716 51.5518 323.371 50.7445 324.562 49.1299C325.752 47.4951 326.348 44.8916 326.348 41.3193C326.348 38.2718 325.752 35.9105 324.562 34.2354C323.371 32.5602 321.696 31.7227 319.536 31.7227C317.397 31.7227 315.742 32.5602 314.571 34.2354C313.401 35.8903 312.815 38.4635 312.815 41.9551Z" fill="#9B28F5"/>
</svg>
